<svg xmlns:dc="http://purl.org/dc/elements/1.1/" xmlns:cc="http://web.resource.org/cc/" xmlns:rdf="http://www.w3.org/1999/02/22-rdf-syntax-ns#" xmlns:svg="http://www.w3.org/2000/svg" xmlns="http://www.w3.org/2000/svg" xmlns:xlink="http://www.w3.org/1999/xlink" xmlns:sodipodi="http://inkscape.sourceforge.net/DTD/sodipodi-0.dtd" xmlns:inkscape="http://www.inkscape.org/namespaces/inkscape" sodipodi:version="0.32" inkscape:version="0.43" width="515.7058715820312" height="593.11767578125" sodipodi:docbase="D:\Mijn documenten\wikipedia" sodipodi:docname="Padang_logo.svg" version="1.0"><rect id="backgroundrect" width="100%" height="100%" x="0" y="0" fill="none" stroke="none" style="" class=""/>
  <metadata id="metadata1423">
    <rdf:RDF>
      <cc:Work rdf:about="">
        <dc:format>image/svg+xml</dc:format>
        <dc:type rdf:resource="http://purl.org/dc/dcmitype/StillImage"/>
        <dc:title/>
        <dc:date/>
        <dc:creator>
          <cc:Agent>
            <dc:title/>
          </cc:Agent>
        </dc:creator>
        <dc:rights>
          <cc:Agent>
            <dc:title/>
          </cc:Agent>
        </dc:rights>
        <dc:source/>
        <cc:license rdf:resource="http://web.resource.org/cc/PublicDomain"/>
      </cc:Work>
      <cc:License rdf:about="http://web.resource.org/cc/PublicDomain">
        <cc:permits rdf:resource="http://web.resource.org/cc/Reproduction"/>
        <cc:permits rdf:resource="http://web.resource.org/cc/Distribution"/>
        <cc:permits rdf:resource="http://web.resource.org/cc/DerivativeWorks"/>
      </cc:License>
    </rdf:RDF>
  </metadata>
  <defs id="defs1421">
    <linearGradient id="linearGradient32221">
      <stop style="stop-color:#000006;stop-opacity:1;" offset="0" id="stop32223"/>
      <stop id="stop32229" offset="1" style="stop-color:#100699;stop-opacity:1;"/>
      <stop style="stop-color:#1d10b7;stop-opacity:0;" offset="1" id="stop32225"/>
    </linearGradient>
    <linearGradient id="linearGradient31338">
      <stop style="stop-color:#2015a9;stop-opacity:1;" offset="0" id="stop31340"/>
      <stop id="stop31346" offset="0.98591548" style="stop-color:#040408;stop-opacity:0.98473281;"/>
      <stop style="stop-color:#2015a9;stop-opacity:0;" offset="1" id="stop31342"/>
    </linearGradient>
    <linearGradient id="linearGradient30443">
      <stop style="stop-color:#000004;stop-opacity:0.95419848;" offset="0" id="stop30451"/>
      <stop id="stop30457" offset="0.45070422" style="stop-color:#000043;stop-opacity:1;"/>
      <stop style="stop-color:#03038d;stop-opacity:0.99607843;" offset="0.72535211" id="stop30459"/>
      <stop id="stop30461" offset="0.86267602" style="stop-color:#000077;stop-opacity:0.99607843;"/>
      <stop style="stop-color:#1010a0;stop-opacity:0.99607843;" offset="0.93133801" id="stop30463"/>
      <stop id="stop30453" offset="1" style="stop-color:#000000;stop-opacity:0.99236643;"/>
    </linearGradient>
    <linearGradient id="linearGradient27779">
      <stop style="stop-color:#1d10b7;stop-opacity:1;" offset="0" id="stop27781"/>
      <stop id="stop27787" offset="0.5" style="stop-color:#07005d;stop-opacity:1;"/>
      <stop style="stop-color:#030032;stop-opacity:1;" offset="0.75" id="stop27789"/>
      <stop id="stop27791" offset="0.875" style="stop-color:#000004;stop-opacity:0.95419848;"/>
      <stop style="stop-color:#000000;stop-opacity:0.99236643;" offset="0.9375" id="stop27793"/>
      <stop style="stop-color:#1d10b7;stop-opacity:0;" offset="1" id="stop27783"/>
    </linearGradient>
    <linearGradient inkscape:collect="always" xlink:href="#linearGradient32221" id="linearGradient34374" gradientUnits="userSpaceOnUse" gradientTransform="matrix(0.840787,0,0,0.840787,7.910781,9.750374)" x1="227.5396728515625" y1="647.6458740234375" x2="249.29713439941406" y2="647.6458740234375"/>
    <linearGradient inkscape:collect="always" xlink:href="#linearGradient31338" id="linearGradient34376" gradientUnits="userSpaceOnUse" gradientTransform="matrix(0.840787,0,0,0.840787,7.910781,9.750374)" x1="456.0904846191406" y1="647.2105102539062" x2="477.8479309082031" y2="647.2105102539062"/>
    <linearGradient inkscape:collect="always" xlink:href="#linearGradient30443" id="linearGradient1402" gradientUnits="userSpaceOnUse" gradientTransform="matrix(0.840787,0,0,0.840787,7.910781,9.750374)" spreadMethod="pad" x1="456.3879089355469" y1="664.6239013671875" x2="532.6929321289062" y2="664.6239013671875"/>
    <linearGradient inkscape:collect="always" xlink:href="#linearGradient27779" id="linearGradient1406" gradientUnits="userSpaceOnUse" gradientTransform="matrix(0.840787,0,0,0.840787,7.910781,9.750374)" x1="173.3948516845703" y1="664.6114501953125" x2="249.6998748779297" y2="664.6114501953125"/>
  </defs>
  <sodipodi:namedview inkscape:window-height="808" inkscape:window-width="1152" inkscape:pageshadow="2" inkscape:pageopacity="0.0" borderopacity="1" bordercolor="#666666" pagecolor="#ffffff" id="base" inkscape:zoom="0.63959378" inkscape:cx="301.18109" inkscape:cy="166.71163" inkscape:window-x="-4" inkscape:window-y="-4" inkscape:current-layer="svg1418" showborder="true" inkscape:showpageshadow="true" borderlayer="top"/>
  
  
  
  
  
  
  
  
  
  
  
  
  
  
  
  
  
  
  
  
  
  
  
  
  
  
  
  
  
<g class="currentLayer" style=""><title>Layer 1</title><path style="fill-rule: evenodd; stroke: rgb(0, 0, 0); stroke-width: 10.9302; stroke-linecap: butt; stroke-linejoin: miter; stroke-miterlimit: 4; stroke-dasharray: none; stroke-opacity: 1; display: inline;" d="M24.471518635749817,16.27989959716797 L491.724774479866,16.970077514648438 L434.4390078783035,568.4260864257812 L81.06625092029572,568.4260864257812 L24.471518635749817,16.27989959716797 z" id="path1432" class="" opacity="1" fill="#ffffff" fill-opacity="1"/><g inkscape:groupmode="layer" id="layer2" inkscape:label="wit" style="display:inline" class=""/><g inkscape:groupmode="layer" id="layer1" inkscape:label="achtergrond" style="display:inline" class=""/><path style="fill:#ffffff;fill-opacity:1;fill-rule:evenodd;stroke:#ffffff;stroke-width:0.84078699px;stroke-linecap:butt;stroke-linejoin:miter;stroke-opacity:1;display:inline" d="M171.8251223564148,260.054931640625 L179.41710233688354,436.0511779785156 L327.80609464645386,435.3609924316406 L346.44098234176636,260.054931640625 L171.8251223564148,260.054931640625 z" id="path18101" class=""/><path style="fill:#000000;fill-opacity:1;fill-rule:evenodd;stroke:#000000;stroke-width:1.68157399;stroke-linecap:butt;stroke-linejoin:miter;stroke-miterlimit:4;stroke-dasharray:none;stroke-opacity:1;display:inline" d="M48.62780714035034,39.887176513671875 L72.78409910202026,263.1607666015625 L136.28079557418823,263.1607666015625 L136.28079557418823,234.86331176757812 L167.16640043258667,235.03585815429688 C198.8139681816101,224.35748291015625 208.5240511894226,185.22132873535156 268.6230502128601,184.9977264404297 C323.123019695282,187.88717651367188 333.4654269218445,213.24737548828125 345.58414030075073,261.26275634765625 L444.7918429374695,261.0902099609375 L466.877658367157,39.887176513671875 C352.82474088668823,29.464195251464844 187.20177030563354,44.87671661376953 48.62780714035034,39.887176513671875 z" id="path2307" sodipodi:nodetypes="cccccccccc" class=""/><path style="fill:url(#linearGradient1406);fill-opacity:1;fill-rule:evenodd;stroke:#000000;stroke-width:3.19499063;stroke-linecap:butt;stroke-linejoin:miter;stroke-miterlimit:4;stroke-dasharray:none;stroke-opacity:1;display:inline" d="M146.34311246871948,546.755615234375 L146.58713102340698,510.15313720703125 C154.4769778251648,507.631591796875 162.3668246269226,502.9127502441406 170.25667142868042,496.97589111328125 C172.0652346611023,493.2653503417969 168.16328763961792,492.41009521484375 162.2041506767273,492.58349609375 L109.74072599411011,492.8275146484375 L127.3098635673523,511.6172790527344 L110.47275114059448,530.89453125 L146.09909391403198,530.6505126953125 " id="path18984" sodipodi:nodetypes="cccccccc" class=""/><path style="fill:#e92d1b;fill-opacity:1;fill-rule:evenodd;stroke:#e92d1b;stroke-width:0.83637094px;stroke-linecap:butt;stroke-linejoin:miter;stroke-opacity:1;display:inline" d="M52.46661710739136,39.910850524902344 L463.11017179489136,39.912803649902344 C393.561984539032,184.8529052734375 121.66110563278198,182.71670532226562 52.46661710739136,39.910850524902344 z" id="path4055" sodipodi:nodetypes="ccc" class=""/><path style="fill:#1d10b7;fill-opacity:1;fill-rule:evenodd;stroke:#1d10b7;stroke-width:0.85177535px;stroke-linecap:butt;stroke-linejoin:miter;stroke-opacity:1;display:inline" d="M137.31453275680542,259.2859802246094 L137.07049894332886,234.7432861328125 L168.30455350875854,234.99371337890625 C197.31688261032104,223.34671020507812 213.46945524215698,181.354248046875 267.8630404472351,184.4056854248047 C328.7377963066101,187.19735717773438 356.67789030075073,217.34335327148438 367.66556119918823,259.5364074707031 L137.31453275680542,259.2859802246094 z" id="path4930" sodipodi:nodetypes="cccccc" class=""/><path style="fill:#e92d1b;fill-opacity:1;fill-rule:evenodd;stroke:#000000;stroke-width:3.47520781;stroke-linecap:butt;stroke-linejoin:miter;stroke-miterlimit:4;stroke-dasharray:none;stroke-opacity:1;display:inline" d="M73.73984098434448,261.5014953613281 L174.4353518486023,261.5014953613281 C151.61520719528198,334.26031494140625 156.2634310722351,409.4596862792969 181.71724271774292,484.7729187011719 L96.63785123825073,484.7729187011719 L73.73984098434448,261.5014953613281 z" id="path11049" sodipodi:nodetypes="ccccc" class=""/><path style="fill:#e92d1b;fill-opacity:1;fill-rule:evenodd;stroke:#000000;stroke-width:3.52705503;stroke-linecap:butt;stroke-linejoin:miter;stroke-miterlimit:4;stroke-dasharray:none;stroke-opacity:1;display:inline" d="M443.38690519332886,261.7436218261719 L339.55264616012573,261.7436218261719 C363.0841097831726,334.4241638183594 344.0571322441101,409.5426025390625 317.8099093437195,484.7747497558594 L419.7751498222351,484.7747497558594 L443.38690519332886,261.7436218261719 z" id="path13715" sodipodi:nodetypes="ccccc" class=""/><path style="fill:#1d10b7;fill-opacity:1;fill-rule:evenodd;stroke:#000000;stroke-width:2.90434003;stroke-linecap:butt;stroke-linejoin:miter;stroke-miterlimit:4;stroke-dasharray:none;stroke-opacity:1;display:inline" d="M177.41847562789917,311.5655212402344 C187.4362063407898,298.86993408203125 196.60165739059448,313.88690185546875 207.18843412399292,314.2421569824219 C216.10867643356323,313.6272888183594 219.56405973434448,306.4990234375 229.39389371871948,305.26519775390625 C239.69330167770386,306.299072265625 242.3538851737976,314.1852722167969 252.33139371871948,314.1538391113281 C260.695773601532,313.6143798828125 264.798556804657,305.8648376464844 273.560763835907,305.7347106933594 C285.234836101532,306.0520324707031 287.6768832206726,313.71173095703125 295.7662081718445,313.9632568359375 C304.6612582206726,313.7516174316406 307.812472820282,307.7335205078125 316.7515902519226,306.4389953613281 C328.72223234176636,307.6540222167969 329.4908175468445,313.75347900390625 335.78482389450073,315.0487365722656 L336.76089811325073,332.48895263671875 C329.68890714645386,332.71875 324.5803256034851,325.70086669921875 316.7515902519226,326.1083679199219 C308.0726046562195,326.27130126953125 304.5618929862976,333.4911193847656 296.2542452812195,333.3396911621094 C287.39102506637573,333.33831787109375 281.89090299606323,325.311767578125 273.3167452812195,325.6830139160156 C265.70025968551636,326.3143310546875 260.16360807418823,333.6947326660156 251.84335660934448,333.3396911621094 C243.95730924606323,333.19622802734375 239.70657682418823,326.6830749511719 230.36993741989136,326.53375244140625 C220.86117887496948,326.37939453125 215.11252164840698,333.0079345703125 207.43245267868042,333.25140380859375 C200.0306429862976,332.4715576171875 196.76327848434448,327.4259338378906 185.47101163864136,326.1083679199219 C179.72845792770386,326.9335632324219 178.48558378219604,328.19775390625 175.7103762626648,330.57476806640625 L177.41847562789917,311.5655212402344 z" id="path18093" sodipodi:nodetypes="cccccccccccccccccc" class=""/><path style="fill:#1d10b7;fill-opacity:1;fill-rule:evenodd;stroke:#000000;stroke-width:3.05819011;stroke-linecap:butt;stroke-linejoin:miter;stroke-miterlimit:4;stroke-dasharray:none;stroke-opacity:1;display:inline" d="M177.17445707321167,276.6754455566406 C187.19217252731323,262.5992126464844 198.06575345993042,278.82635498046875 208.65253019332886,279.22021484375 C217.57278776168823,278.5384826660156 221.27215909957886,272.6196594238281 229.39389371871948,271.2516784667969 C237.98517179489136,271.8774108886719 242.8419222831726,280.19830322265625 252.81940031051636,280.1634521484375 C261.183810710907,279.5653076171875 266.50665616989136,271.91656494140625 274.7808566093445,271.2516784667969 C284.746798992157,271.603515625 289.6290011405945,279.9010314941406 297.71832609176636,280.17987060546875 C306.6133761405945,279.94525146484375 307.812472820282,272.68701171875 316.7515902519226,271.251708984375 C328.72220182418823,272.5988464355469 328.5147433280945,277.9789123535156 334.80878019332886,279.4150085449219 L335.78482389450073,301.43603515625 C328.71283292770386,301.69085693359375 323.60428190231323,295.1298522949219 315.7755160331726,295.5816650390625 C307.0965304374695,295.7622985839844 303.5858187675476,302.5472106933594 295.2781710624695,302.3793029785156 C286.41498136520386,302.3778076171875 281.89090299606323,294.2104187011719 273.3167452812195,294.6219787597656 C265.70025968551636,295.32196044921875 259.18753385543823,302.77294921875 250.86728239059448,302.3793029785156 C242.98123502731323,302.2202453613281 238.73053312301636,294.998779296875 229.39389371871948,294.8332214355469 C219.88510465621948,294.66204833984375 214.13644742965698,302.0765380859375 206.45637845993042,302.34649658203125 C199.0545687675476,301.4818420410156 195.78720426559448,295.82244873046875 184.49493741989136,294.361572265625 C178.75238370895386,295.2765197753906 177.5095248222351,296.6781921386719 174.7343020439148,299.3136901855469 L177.17445707321167,276.6754455566406 z" id="path15472" sodipodi:nodetypes="cccccccccccccccccc" class=""/><path style="fill:#1d10b7;fill-opacity:1;fill-rule:evenodd;stroke:#000000;stroke-width:2.67856765;stroke-linecap:butt;stroke-linejoin:miter;stroke-miterlimit:4;stroke-dasharray:none;stroke-opacity:1;display:inline" d="M177.66249418258667,341.3391418457031 C187.68020963668823,330.5406494140625 196.84567594528198,343.3136291503906 207.43245267868042,343.61578369140625 C216.35269498825073,343.0928039550781 219.80804777145386,337.02972412109375 229.63791227340698,335.9802551269531 C239.93728971481323,336.8596496582031 242.5979037284851,343.5674133300781 252.57538175582886,343.5406799316406 C260.9397921562195,343.0818176269531 265.0425753593445,336.4903259277344 273.8047823905945,336.3796081542969 C285.47882413864136,336.6495361328125 287.9209017753601,343.1646423339844 296.010226726532,343.3785705566406 C304.9052767753601,343.19854736328125 308.0564913749695,338.0797424316406 316.9956088066101,336.9786682128906 C328.96622037887573,338.0121154785156 329.734836101532,343.2001647949219 336.02884244918823,344.3018493652344 L337.00491666793823,359.135986328125 C329.93292570114136,359.3314514160156 324.8243441581726,353.36224365234375 316.9956088066101,353.7088623046875 C308.316623210907,353.8474426269531 304.8059115409851,359.9884033203125 296.498263835907,359.8595886230469 C287.63504362106323,359.8584289550781 282.13492155075073,353.03131103515625 273.560763835907,353.3470458984375 C265.94427824020386,353.884033203125 260.4075961112976,360.16156005859375 252.08737516403198,359.8595886230469 C244.20132780075073,359.7375793457031 239.95059537887573,354.19769287109375 230.61395597457886,354.0706481933594 C221.10519742965698,353.9393615722656 216.57660245895386,360.3094482421875 208.89654874801636,360.51654052734375 C201.49472379684448,359.8532409667969 197.00728178024292,354.8295593261719 185.71503019332886,353.7088623046875 C179.97247648239136,354.4107360839844 178.72960233688354,355.48602294921875 175.9543948173523,357.5078430175781 L177.66249418258667,341.3391418457031 z" id="path18095" sodipodi:nodetypes="cccccccccccccccccc" class=""/><path style="fill:#1d10b7;fill-opacity:1;fill-rule:evenodd;stroke:#000000;stroke-width:2.62890506;stroke-linecap:butt;stroke-linejoin:miter;stroke-miterlimit:4;stroke-dasharray:none;stroke-opacity:1;display:inline" d="M178.8825716972351,368.4228515625 C188.90030241012573,358.02105712890625 198.06575345993042,369.3487243652344 208.65253019332886,369.6398010253906 C217.57278776168823,369.1360168457031 221.02814054489136,364.271728515625 230.85797452926636,363.2608337402344 C241.15738248825073,364.10791015625 243.5739779472351,369.59320068359375 253.55145597457886,369.56744384765625 C261.9158663749695,369.12542724609375 266.262668132782,363.7521667480469 275.024875164032,363.6455383300781 C286.69891691207886,363.905517578125 290.361056804657,369.6932373046875 298.450412273407,369.8993225097656 C307.3454623222351,369.7259216308594 309.27655363082886,365.283203125 318.2157015800476,364.2225646972656 C330.18631315231323,365.2180480957031 330.95489835739136,370.2154846191406 337.24893522262573,371.2767028808594 L338.2249789237976,385.56585693359375 C331.15301847457886,385.754150390625 326.0444369316101,380.0042419433594 318.2157015800476,380.338134765625 C309.5367159843445,380.47161865234375 306.0259737968445,386.3869934082031 297.7183566093445,386.26287841796875 C288.85513639450073,386.26177978515625 283.35501432418823,379.6854553222656 274.7808566093445,379.9895935058594 C267.16437101364136,380.5068664550781 261.6276888847351,386.55377197265625 253.30743741989136,386.26287841796875 C245.4213900566101,386.1453552246094 241.17068815231323,380.8089904785156 231.83404874801636,380.6866455078125 C222.32529020309448,380.5601501464844 216.57660245895386,385.9910888671875 208.89654874801636,386.1905517578125 C201.49472379684448,385.5516357421875 198.22737455368042,381.4176330566406 186.9351077079773,380.338134765625 C181.1925539970398,381.01422119140625 179.94967985153198,382.0500183105469 177.17447233200073,383.99755859375 L178.8825716972351,368.4228515625 z" id="path18097" sodipodi:nodetypes="cccccccccccccccccc" class=""/><path style="fill:#1d10b7;fill-opacity:1;fill-rule:evenodd;stroke:#000000;stroke-width:2.62890506;stroke-linecap:butt;stroke-linejoin:miter;stroke-miterlimit:4;stroke-dasharray:none;stroke-opacity:1;display:inline" d="M178.63856840133667,395.10430908203125 C188.65628385543823,384.7025451660156 197.82175016403198,396.03021240234375 208.40851163864136,396.3212585449219 C217.32876920700073,395.8175048828125 220.78412199020386,390.9532165527344 230.61395597457886,389.94232177734375 C240.91336393356323,390.7893981933594 243.3299593925476,396.274658203125 253.30743741989136,396.2489318847656 C261.671847820282,395.8069152832031 266.0186495780945,390.4336242675781 274.7808566093445,390.3269958496094 C286.45489835739136,390.5870056152344 290.1170382499695,396.3747253417969 298.2063937187195,396.5807800292969 C307.1014437675476,396.40740966796875 309.03253507614136,391.96466064453125 317.9716830253601,390.904052734375 C329.94229459762573,391.8995361328125 330.710910320282,396.89697265625 337.00491666793823,397.95819091796875 L337.98099088668823,412.2473449707031 C330.90899991989136,412.4356384277344 325.8004183769226,406.68572998046875 317.9716830253601,407.01959228515625 C309.292697429657,407.1531066894531 305.781955242157,413.0684509277344 297.474338054657,412.9443664550781 C288.61111783981323,412.9432678222656 283.11099576950073,406.366943359375 274.536838054657,406.67108154296875 C266.92035245895386,407.1883544921875 261.3836703300476,413.2352600097656 253.06344938278198,412.9443664550781 C245.17740201950073,412.82684326171875 240.92666959762573,407.490478515625 231.59003019332886,407.36810302734375 C222.08127164840698,407.24163818359375 216.33258390426636,412.6725769042969 208.65254545211792,412.8720397949219 C201.25072050094604,412.23309326171875 197.98335599899292,408.09912109375 186.69110441207886,407.01959228515625 C180.94855070114136,407.6957092285156 179.70566129684448,408.7314758300781 176.93045377731323,410.67901611328125 L178.63856840133667,395.10430908203125 z" id="path18099" sodipodi:nodetypes="cccccccccccccccccc" class=""/><path style="fill:#000000;fill-opacity:1;fill-rule:evenodd;stroke:#000000;stroke-width:0.86172539px;stroke-linecap:butt;stroke-linejoin:miter;stroke-opacity:1;display:inline" d="M179.51376676559448,422.4463806152344 L339.0649447441101,422.9691162109375 L338.9180636405945,447.4271240234375 L333.09137296676636,486.1363525390625 L176.88951444625854,486.0364990234375 L181.54477262496948,449.6029357910156 L179.51376676559448,422.4463806152344 z" id="path14597" sodipodi:nodetypes="ccccccc" class=""/><path style="fill:#eaeb29;fill-opacity:1;fill-rule:evenodd;stroke:#000000;stroke-width:4.62432861;stroke-linecap:butt;stroke-linejoin:miter;stroke-miterlimit:4;stroke-dasharray:none;stroke-opacity:1;display:inline" d="M370.10574674606323,261.4996032714844 L344.72809171676636,261.4996032714844 C340.37103605270386,264.0981140136719 338.2791781425476,268.50872802734375 337.1635775566101,273.7004089355469 C336.07632780075073,288.73089599609375 337.5369906425476,301.0412902832031 338.3836703300476,315.4271240234375 L306.173556804657,301.2742004394531 C313.3646273612976,311.18109130859375 329.8060336112976,329.0098876953125 333.74734830856323,339.584716796875 C338.331271648407,353.3372497558594 336.70148038864136,376.8763122558594 333.74734830856323,379.35931396484375 C319.51044034957886,397.26763916015625 321.54446744918823,426.16082763671875 334.23538541793823,448.17181396484375 C337.94620084762573,454.09552001953125 329.543918132782,473.1158142089844 325.6948275566101,484.042724609375 L330.64154386520386,483.6976318359375 C342.40155363082886,463.316162109375 354.72247648239136,440.9539794921875 341.55585050582886,410.61785888671875 C336.91607999801636,396.3314208984375 373.0271029472351,373.12188720703125 355.70877408981323,345.92913818359375 C348.9275851249695,330.59832763671875 364.6075472831726,329.58026123046875 372.0578646659851,322.99163818359375 L387.430881023407,312.9869689941406 C385.67801237106323,307.3471374511719 387.268527507782,311.7666320800781 385.2347140312195,305.66650390625 L352.7806124687195,315.9151611328125 C356.2222933769226,306.44940185546875 357.04532194137573,296.6457214355469 354.73273038864136,285.9012145996094 C367.18594694137573,280.6988830566406 370.61993741989136,271.8888854980469 370.10574674606323,261.4996032714844 z" id="path10174" sodipodi:nodetypes="cccccccccccccccccc" class=""/><path style="fill:#eaeb29;fill-opacity:1;fill-rule:evenodd;stroke:#000000;stroke-width:4.62432861;stroke-linecap:butt;stroke-linejoin:miter;stroke-miterlimit:4;stroke-dasharray:none;stroke-opacity:1;display:inline" d="M147.31917142868042,262.2316589355469 C128.6997561454773,273.4958801269531 135.5593295097351,293.1617431640625 150.7354006767273,297.8580017089844 C132.92743253707886,306.6478271484375 140.17129850387573,327.3770446777344 153.66359281539917,329.8240661621094 C139.0488772392273,335.47119140625 140.64314603805542,355.3304138183594 155.12767362594604,359.5940246582031 C144.18460416793823,365.1268310546875 143.71132230758667,381.8019714355469 157.32382535934448,386.6797790527344 C144.39003324508667,396.6032409667969 152.5820345878601,409.9925842285156 161.2280764579773,416.2057189941406 L162.2041506767273,428.8945617675781 L163.91226530075073,484.042724609375 L183.92157316207886,484.042724609375 L179.28526639938354,414.98565673828125 C187.0639681816101,408.01068115234375 192.1277346611023,392.2448425292969 178.79722929000854,385.2156982421875 C191.2240023612976,376.4898681640625 185.44630765914917,360.3362731933594 177.0891146659851,356.66583251953125 C188.12794828414917,348.1072692871094 182.5232424736023,332.96246337890625 173.1848635673523,327.6279296875 C183.3140139579773,320.64434814453125 185.25448942184448,301.3438415527344 170.01265287399292,296.3938903808594 C188.06117582321167,284.44024658203125 174.18114042282104,264.0277099609375 169.03659391403198,263.4517517089844 C164.8091311454773,260.928466796875 155.38901090621948,261.5529479980469 147.31917142868042,262.2316589355469 z" id="path8426" sodipodi:nodetypes="cccccccccccccccc" class=""/><path style="fill-rule: evenodd; stroke: rgb(0, 0, 0); stroke-width: 3.19499; stroke-linecap: butt; stroke-linejoin: miter; stroke-miterlimit: 4; stroke-dasharray: none; stroke-opacity: 1; display: inline;" d="M372.0364685058594,549.1189880371094 L371.7924499511719,512.5165100097656 C363.9026794433594,509.9949645996094 356.0127868652344,505.276123046875 348.1228942871094,499.3393249511719 C346.3143615722656,495.62872314453125 350.2162780761719,494.7735290527344 356.1755065917969,494.9469299316406 L408.6388854980469,495.1909484863281 L391.0697326660156,513.9806518554688 L407.9068298339844,533.2579650878906 L372.2804870605469,533.0139465332031 " id="path20740" sodipodi:nodetypes="cccccccc" class="" fill="#0404b8" fill-opacity="1"/><path style="fill:#1d10b7;fill-opacity:1;fill-rule:evenodd;stroke:#000000;stroke-width:3.19499063;stroke-linecap:butt;stroke-linejoin:miter;stroke-miterlimit:4;stroke-dasharray:none;stroke-opacity:1;display:inline" d="M146.83113431930542,509.96832275390625 L371.3258090019226,509.90911865234375 " id="path19859" sodipodi:nodetypes="cc" class=""/><path style="fill:#1d10b7;fill-opacity:1;fill-rule:evenodd;stroke:#000000;stroke-width:3.20893502;stroke-linecap:butt;stroke-linejoin:miter;stroke-miterlimit:4;stroke-dasharray:none;stroke-opacity:1;display:inline" d="M144.72447538375854,546.0748901367188 L373.644504070282,546.1968994140625 " id="path20742" sodipodi:nodetypes="cc" class=""/><path style="fill:#1d10b7;fill-opacity:1;fill-rule:evenodd;stroke:#000000;stroke-width:3.19499063;stroke-linecap:butt;stroke-linejoin:miter;stroke-miterlimit:4;stroke-dasharray:none;stroke-opacity:1;display:inline" d="M170.69821500778198,495.31903076171875 L173.0163607597351,509.7164001464844 " id="path21617" sodipodi:nodetypes="cc" class=""/><path style="fill:#1d10b7;fill-opacity:1;fill-rule:evenodd;stroke:#000000;stroke-width:3.19499063;stroke-linecap:butt;stroke-linejoin:miter;stroke-miterlimit:4;stroke-dasharray:none;stroke-opacity:1;display:inline" d="M347.6707797050476,495.4410705566406 L345.3526339530945,509.83843994140625 " id="path22492" sodipodi:nodetypes="cc" class=""/><rect style="fill:#1d10b7;fill-opacity:1;fill-rule:evenodd;stroke:none;stroke-width:1px;stroke-linecap:butt;stroke-linejoin:miter;stroke-opacity:1;display:inline" id="rect24257" width="222.7560272216797" height="34.13437271118164" x="147.84146118164062" y="510.76336669921875" class=""/><text xml:space="preserve" style="font-size:17.22340775px;font-style:normal;font-variant:normal;font-weight:bold;font-stretch:normal;text-align:start;line-height:125%;writing-mode:lr-tb;text-anchor:start;fill:#eef32e;fill-opacity:1;stroke:none;stroke-width:1px;stroke-linecap:butt;stroke-linejoin:miter;stroke-opacity:1;display:inline;font-family:Myriad Web Pro" x="178.21655382022857" y="483.3487126746369" id="text25146" sodipodi:linespacing="125%" transform="translate(0, -1.11111) scale(0.902277, 1.10831)" class=""><tspan sodipodi:role="line" id="tspan25148" x="178.21655382022857" y="483.3487126746369">PADANG KOTA TERCINTA</tspan></text><path style="fill:none;fill-opacity:0.75;fill-rule:evenodd;stroke:#000000;stroke-width:2.94275451;stroke-linecap:butt;stroke-linejoin:miter;stroke-miterlimit:4;stroke-dasharray:none;stroke-opacity:1" d="M135.11836576461792,260.0355224609375 L368.64163541793823,260.5235595703125 " id="path6678" class=""/><path style="fill:none;fill-opacity:0.75;fill-rule:evenodd;stroke:#000000;stroke-width:5.54694748;stroke-linecap:butt;stroke-linejoin:miter;stroke-miterlimit:4;stroke-dasharray:none;stroke-opacity:1" d="M467.9151644706726,37.67840576171875 L47.59028959274292,37.67840576171875 " id="path33275" class=""/></g></svg>